<?xml version="1.0" standalone="no"?><!DOCTYPE svg PUBLIC "-//W3C//DTD SVG 1.1//EN" "http://www.w3.org/Graphics/SVG/1.1/DTD/svg11.dtd"><svg t="1585462185023" class="icon" viewBox="0 0 1024 1024" version="1.1" xmlns="http://www.w3.org/2000/svg" p-id="2255" width="128" height="128" xmlns:xlink="http://www.w3.org/1999/xlink"><defs><style type="text/css"></style></defs><path d="M514.885818 563.665455c-13.218909 0-24.762182-2.234182-34.257454-6.656L74.612364 368.360727c-17.408-8.145455-27.834182-23.505455-28.066909-41.192727-0.186182-12.893091 5.306182-37.422545 44.032-56.971636l350.068363-176.267637c33.373091-16.849455 77.405091-21.969455 102.772364-10.193454l405.969454 188.788363c17.268364 8.005818 27.741091 23.365818 28.066909 41.053091 0.186182 12.893091-5.259636 37.515636-44.12509 57.111273l-350.068364 176.314182a161.047273 161.047273 0 0 1-68.375273 16.663273z m-5.073454-70.097455c0.325818 0 2.048 0.279273 5.026909 0.279273 11.264 0 25.786182-3.630545 37.003636-9.309091l330.286546-166.306909-367.941819-171.101091c0.232727 0.093091-1.722182-0.232727-5.026909-0.232727-11.310545 0-25.879273 3.677091-37.143272 9.355636L141.730909 322.606545l368.081455 170.961455c-0.046545 0.046545-0.046545 0 0 0z m73.402181 261.818182l350.068364-176.314182c38.865455-19.595636 44.311273-44.171636 44.125091-57.111273-0.325818-17.687273-10.798545-33.047273-28.113455-41.053091a35.048727 35.048727 0 0 0-49.24509 36.724364l-348.253091 175.383273c-17.314909 8.750545-37.376 10.426182-41.844364 9.169454L135.866182 528.290909a34.909091 34.909091 0 0 0-45.381818-49.664c-38.679273 19.595636-44.125091 44.125091-43.938909 57.064727 0.279273 17.594182 10.705455 32.954182 28.020363 41.099637l406.016 188.788363c10.146909 4.701091 22.016 6.702545 34.443637 6.702546a159.976727 159.976727 0 0 0 68.18909-16.896z m0 174.778182l350.068364-176.267637c38.865455-19.595636 44.311273-44.171636 44.125091-57.111272-0.325818-17.687273-10.798545-33.047273-28.113455-41.099637a35.095273 35.095273 0 0 0-49.24509 36.724364l-348.206546 175.383273c-17.408 8.750545-37.422545 10.379636-41.890909 9.169454l-374.085818-173.847273a35.002182 35.002182 0 0 0 1.582545-34.257454 34.769455 34.769455 0 0 0-46.917818-15.406546c-38.679273 19.549091-44.171636 44.078545-43.985454 56.971637 0.232727 17.640727 10.658909 33.000727 28.066909 41.192727l406.062545 188.788364c10.100364 4.654545 21.969455 6.609455 34.304 6.609454a161.047273 161.047273 0 0 0 68.235636-16.849454z" p-id="2256" fill="#0e45ef"></path></svg>